<svg width="25" height="25" viewBox="0 0 25 25" fill="none" xmlns="http://www.w3.org/2000/svg">
<path fill-rule="evenodd" clip-rule="evenodd" d="M0.600649 11.5685C0.219412 11.8953 0 12.3724 0 12.8745C0 14.344 1.72367 15.1368 2.83941 14.1804L17.4801 1.63125C18.1532 1.05433 17.8865 0 17 0L15.9469 0C14.7533 0 13.5992 0.426962 12.6929 1.20372L0.600649 11.5685ZM8.33301 0.900198C8.6937 0.591034 8.47506 0 8 0C3.58172 0 0 3.58172 0 8C0 8.01681 0.019715 8.02588 0.0324765 8.01494L8.33301 0.900198ZM8 25C6.8423 25 6.5362 23.6238 7.41519 22.8704L24.8455 7.93009C24.9064 7.87793 25 7.91985 25 8V10.0288C25 11.4884 24.3622 12.8752 23.254 13.8251L11.6209 23.7963C10.7147 24.573 9.5605 25 8.36694 25H8ZM16.5018 23.6533C15.9622 24.1158 16.2893 25 17 25C21.4183 25 25 21.4183 25 17C25 16.7521 24.7092 16.6183 24.521 16.7797L16.5018 23.6533ZM1.82785 19.0881C1.11402 19.6999 0.857631 20.7278 1.38764 21.5043C2.00074 22.4026 3.24983 22.4001 4.07558 21.6923L22.906 5.55196C23.6539 4.91085 23.8925 3.81919 23.282 3.04606C22.6377 2.23008 21.4529 2.26664 20.6635 2.94329L1.82785 19.0881Z" fill="url(#paint0_linear_432_21)"/>
<defs>
<linearGradient id="paint0_linear_432_21" x1="12.5149" y1="-0.0619035" x2="12.5149" y2="25.0916" gradientUnits="userSpaceOnUse">
<stop stop-color="white"/>
<stop offset="1" stop-color="#FF3C00"/>
</linearGradient>
</defs>
</svg>
